<svg width="48" height="48" viewBox="0 0 48 48" fill="none" xmlns="http://www.w3.org/2000/svg">
<path d="M23.9999 0C10.7454 0 0 10.7454 0 24.0001C0 37.2555 10.7454 48 23.9999 48C37.2558 48 48 37.2555 48 24.0001C48 10.7462 37.2561 0 23.9999 0ZM35.006 34.6151C34.5762 35.3201 33.6533 35.5437 32.9483 35.1109C27.3134 31.6689 20.2197 30.8893 11.8657 32.7981C11.0606 32.9815 10.2582 32.4771 10.0748 31.6718C9.89049 30.8664 10.3929 30.0639 11.1999 29.8805C20.3421 27.7918 28.1841 28.6911 34.5102 32.5573C35.2153 32.9901 35.4388 33.9101 35.006 34.6151ZM37.9436 28.0801C37.4019 28.9606 36.2498 29.2385 35.37 28.6969C28.9189 24.7315 19.0851 23.5831 11.4547 25.8994C10.4651 26.1983 9.41991 25.6406 9.11956 24.6527C8.82151 23.6631 9.3795 22.6199 10.3674 22.319C19.0834 19.6743 29.9191 20.9553 37.3274 25.5079C38.2072 26.0496 38.4852 27.2014 37.9436 28.0801ZM38.1958 21.2752C30.4607 16.6808 17.6989 16.2583 10.3138 18.4998C9.12787 18.8595 7.87376 18.19 7.51438 17.004C7.15499 15.8175 7.82389 14.5642 9.01066 14.2037C17.4883 11.6301 31.5813 12.1273 40.4868 17.4142C41.5558 18.0473 41.9054 19.4249 41.272 20.4902C40.6415 21.5569 39.259 21.9086 38.1958 21.2752Z" fill="white"/>
</svg>
