<svg width="51" height="50" viewBox="0 0 51 50" fill="none" xmlns="http://www.w3.org/2000/svg">
<rect x="0.5" y="0.3125" width="48.8281" height="48.8281" rx="24.4141" fill="#1ED75F"/>
<path d="M19.0547 15.8229C19.0547 15.6211 19.1029 15.4232 19.194 15.2461C19.4935 14.6732 20.1706 14.4661 20.7083 14.7852L34.1068 22.7122C34.2891 22.8203 34.4388 22.9805 34.5391 23.1745C34.8385 23.7474 34.6432 24.47 34.1068 24.7878L20.7083 32.7148C20.5449 32.8124 20.3583 32.8641 20.168 32.8646C19.5534 32.8646 19.0547 32.3333 19.0547 31.6784V15.8229Z" fill="#000000"/>
<rect x="30.7734" y="30.0977" width="19.5312" height="19.5312" rx="9.76562" fill="#282828"/>
<path d="M34.8425 44.3392H37.0688C37.2595 44.3391 37.4472 44.2911 37.6146 44.1997C37.7821 44.1082 37.9238 43.9762 38.0269 43.8157L40.2543 40.3516L42.4817 36.8869C42.5848 36.7266 42.7265 36.5947 42.8938 36.5033C43.0611 36.4119 43.2487 36.364 43.4393 36.3639H46.2358M46.2358 44.3392H43.4399C43.2491 44.3391 43.0614 44.2911 42.894 44.1997C42.7266 44.1082 42.5848 43.9762 42.4817 43.8157L41.3526 42.0605" stroke="#1ED75F" stroke-linecap="round" stroke-linejoin="round"/>
<path d="M34.8425 36.3639H37.0688C37.2595 36.3639 37.4472 36.4118 37.6146 36.5032C37.782 36.5945 37.9238 36.7265 38.0269 36.8869L39.1554 38.6426" stroke="#1ED75F" stroke-linecap="round" stroke-linejoin="round"/>
<path d="M44.5269 34.6549L46.2358 36.3639L44.5269 38.0729M44.5269 42.6302L46.2358 44.3392L44.5269 46.0482" stroke="#1ED75F" stroke-linecap="round" stroke-linejoin="round"/>
</svg>
